HIERARCHY
ROOT Hips
{
	OFFSET -3.958830 18.904000 13.208200
	CHANNELS 6 Xposition Yposition Zposition Zrotation Yrotation Xrotation 
	JOINT LHipJoint
	{
		OFFSET 0.000000 0.000000 0.000000
		CHANNELS 3 Zrotation Yrotation Xrotation
		JOINT LeftUpLeg
		{
			OFFSET 1.800000 -1.400000 0.085000
			CHANNELS 3 Zrotation Yrotation Xrotation
			JOINT LeftLeg
			{
				OFFSET 2.215000 -6.000000 0.000000
				CHANNELS 3 Zrotation Yrotation Xrotation
				JOINT LeftFoot
				{
					OFFSET 2.500000 -6.900000 0.000000
					CHANNELS 3 Zrotation Yrotation Xrotation
					JOINT LeftToeBase
					{
						OFFSET 0.200000 -0.500000 1.950000
						CHANNELS 3 Zrotation Yrotation Xrotation
						End Site
						{
							OFFSET 0.000000 0.000000 0.000000
						}
					}
				}
			}
		}
	}
	JOINT RHipJoint
	{
		OFFSET 0.000000 0.000000 0.000000
		CHANNELS 3 Zrotation Yrotation Xrotation
		JOINT RightUpLeg
		{
			OFFSET -1.800000 -1.400000 0.085000
			CHANNELS 3 Zrotation Yrotation Xrotation
			JOINT RightLeg
			{
				OFFSET -2.215000 -6.000000 0.000000
				CHANNELS 3 Zrotation Yrotation Xrotation
				JOINT RightFoot
				{
					OFFSET -2.500000 -6.900000 0.000000
					CHANNELS 3 Zrotation Yrotation Xrotation
					JOINT RightToeBase
					{
						OFFSET -0.200000 -0.500000 1.950000
						CHANNELS 3 Zrotation Yrotation Xrotation
						End Site
						{
							OFFSET 0.000000 0.000000 0.000000
						}
					}
				}
			}
		}
	}
	JOINT LowerBack
	{
		OFFSET 0.000000 0.000000 0.000000
		CHANNELS 3 Zrotation Yrotation Xrotation
		JOINT Spine
		{
			OFFSET -0.087000 1.940000 -0.288900
			CHANNELS 3 Zrotation Yrotation Xrotation
			JOINT Spine1
			{
				OFFSET 0.000000 1.950000 0.060000
				CHANNELS 3 Zrotation Yrotation Xrotation
				JOINT Neck
				{
					OFFSET 0.000000 0.000000 0.000000
					CHANNELS 3 Zrotation Yrotation Xrotation
					JOINT Neck1
					{
						OFFSET 0.000000 1.600000 0.340000
						CHANNELS 3 Zrotation Yrotation Xrotation
						JOINT Head
						{
							OFFSET 0.000000 1.667000 -0.240000
							CHANNELS 3 Zrotation Yrotation Xrotation
							End Site
							{
								OFFSET 0.000000 0.000000 0.000000
							}
						}
					}
				}
				JOINT LeftShoulder
				{
					OFFSET 0.000000 0.000000 0.000000
					CHANNELS 3 Zrotation Yrotation Xrotation
					JOINT LeftArm
					{
						OFFSET 2.700000 1.550000 -0.730000
						CHANNELS 3 Zrotation Yrotation Xrotation
						JOINT LeftForeArm
						{
							OFFSET 5.450000 0.000000 0.000000
							CHANNELS 3 Zrotation Yrotation Xrotation
							JOINT LeftHand
							{
								OFFSET 3.450000 0.000000 0.000000
								CHANNELS 3 Zrotation Yrotation Xrotation
								JOINT LeftHandIndex1
								{
									OFFSET 0.750000 0.000000 0.000000
									CHANNELS 3 Zrotation Yrotation Xrotation
									End Site
									{
										OFFSET 0.000000 0.000000 0.000000
									}
								}
							}
						}
					}
				}
				JOINT RightShoulder
				{
					OFFSET 0.000000 0.000000 0.000000
					CHANNELS 3 Zrotation Yrotation Xrotation
					JOINT RightArm
					{
						OFFSET -2.700000 1.550000 -0.730000
						CHANNELS 3 Zrotation Yrotation Xrotation
						JOINT RightForeArm
						{
							OFFSET -5.450000 0.000000 0.000000
							CHANNELS 3 Zrotation Yrotation Xrotation
							JOINT RightHand
							{
								OFFSET -3.450000 0.000000 0.000000
								CHANNELS 3 Zrotation Yrotation Xrotation
								JOINT RightHandIndex1
								{
									OFFSET -0.750000 0.000000 0.000000
									CHANNELS 3 Zrotation Yrotation Xrotation
									End Site
									{
										OFFSET 0.000000 0.000000 0.000000
									}
								}
							}
						}
					}
				}
			}
		}
	}
}
MOTION
Frames: 12
Frame Time: 0.016667
2.334970 16.687730 -6.308980 -15.167477 -3.995279 -6.092232 -15.147343 12.348140 2.855871 21.413620 -2.575395 -13.079972 -16.130574 11.350650 23.152140 -0.254636 7.300596 1.937256 0.743830 0.429210 0.351940 18.487253 -8.225275 5.426480 -36.216582 -3.523265 -42.072034 108.929030 -59.404852 21.854790 -3.134886 -11.269680 0.856907 0.201370 0.216850 0.442310 -3.831966 -3.933163 -9.501416 23.103251 -9.542300 28.040349 -7.288280 -3.207941 15.145890 5.240539 -4.114821 -23.726616 -16.186044 -0.602510 43.822920 5.894110 -9.259970 -27.271090 -13.087862 -43.528296 10.221473 -17.686003 -35.378048 -11.569278 -9.263034 -45.360116 1.183930 -2.587303 3.267056 0.994980 -0.155080 0.380830 0.401310 2.786966 46.076594 12.177827 18.701761 15.409038 -22.712656 25.254886 63.459462 8.449173 0.883779 -1.955466 -0.100150 0.448710 -0.038150 -0.063780 
2.303800 16.816840 -6.282630 -16.104464 -4.275597 -6.007944 -15.044307 12.363692 2.518432 21.066731 -1.935909 -11.178930 -13.449764 9.844741 20.325881 -0.385487 6.683550 2.216229 0.708640 0.369360 0.331170 18.597300 -8.465036 5.436834 -36.499657 -3.650400 -42.119474 110.464256 -59.283555 20.875735 -3.091586 -11.300913 0.850279 0.201270 0.284420 0.439470 -4.126615 -3.459959 -9.219684 26.141917 -10.262334 26.410217 -8.446165 -3.556861 15.001474 4.939835 -4.431597 -21.760374 -15.874862 -1.729094 41.608729 5.539700 -10.286430 -25.355400 -10.537088 -43.162895 8.318615 -16.232404 -34.776103 -11.553990 -12.990198 -49.487329 2.840847 -2.631724 3.399772 0.940710 -0.100290 0.309040 0.402230 0.670381 44.974624 12.004717 17.354015 14.325528 -22.570070 29.665521 67.675604 11.582959 0.859332 -2.094809 -0.133360 0.461990 -0.015110 -0.059420 
2.259510 17.040820 -6.218340 -17.645575 -4.290552 -5.863312 -14.946357 12.475149 2.134802 20.712548 -1.236920 -8.905047 -9.009073 7.746524 16.248397 -0.549461 5.851808 2.586352 0.614300 0.237400 0.252200 18.696489 -8.726237 5.390082 -36.765093 -4.105199 -41.107337 113.419150 -57.750264 18.365472 -3.046952 -11.368669 0.845408 0.154120 0.369770 0.442820 -4.403438 -3.089825 -8.880189 30.640075 -11.755152 24.248642 -10.274334 -4.326059 13.569289 4.758907 -4.682269 -19.940850 -16.105881 -2.024594 41.134416 5.379390 -11.153800 -22.706320 -7.319214 -42.183502 6.700769 -15.149829 -33.684578 -10.641483 -18.327157 -55.092802 5.736111 -2.709561 3.555434 0.907960 -0.037060 0.221450 0.389510 -2.358775 43.217012 11.454823 15.998149 14.150357 -20.932741 36.065550 72.042169 17.225222 0.903072 -2.179072 -0.182980 0.459780 0.051840 -0.059670 
2.191460 17.303280 -6.148720 -18.985414 -5.156758 -5.563266 -14.872367 12.420280 1.940737 20.897333 -0.752915 -6.325219 -5.484944 6.169522 11.515592 -0.541817 5.268827 2.874324 0.564890 0.204260 0.157300 18.771427 -8.911062 5.345241 -35.811593 -3.207708 -40.075519 109.753671 -57.533192 20.391320 -2.989774 -11.420522 0.860998 0.119110 0.440110 0.441640 -4.627188 -2.628094 -8.645522 34.548339 -12.633813 22.280734 -11.868931 -4.833666 12.867284 4.210006 -4.846819 -18.784210 -16.153595 -2.230813 40.749062 6.936280 -11.989770 -20.903700 -2.766158 -41.168569 5.689392 -13.288530 -31.423471 -10.838419 -19.914600 -62.053495 6.935083 -2.755749 3.730206 0.838840 0.007670 0.167940 0.420580 -5.857672 41.638746 11.122670 15.324120 14.367753 -19.931858 39.572021 76.635539 21.260687 0.931865 -2.295336 -0.167110 0.447300 0.063200 -0.009450 
2.081250 17.565490 -6.072570 -20.151732 -5.196142 -4.892730 -14.817998 12.130016 1.901921 21.915783 -0.778869 -4.867915 -3.465945 5.283499 7.708081 -0.538693 5.094596 2.989808 0.575380 0.218720 0.140710 18.854504 -8.981366 5.290985 -34.802262 -2.525498 -38.400016 106.404706 -54.510546 20.785515 -2.941358 -11.490569 0.824205 0.147720 0.479910 0.439930 -4.852259 -2.012086 -8.504916 37.675559 -13.140204 19.232719 -13.374402 -5.473846 12.928734 3.690014 -4.835198 -17.072778 -14.993284 -2.992962 39.008433 6.514670 -12.191800 -19.103920 0.634942 -39.617719 4.845529 -11.191895 -29.516034 -9.752152 -24.277300 -67.939679 10.673883 -2.859958 3.850141 0.781180 0.049540 0.120800 0.452990 -8.327794 39.547542 10.325713 15.177264 16.120121 -17.759102 41.780299 78.678731 24.016446 1.034462 -2.328608 -0.174510 0.437100 0.042430 0.006770 
1.962280 17.813440 -5.985180 -20.403914 -5.669362 -4.141403 -14.810268 11.917626 2.053522 23.034007 -0.916605 -3.998648 -4.039286 5.250602 5.436288 -0.491711 5.308110 2.964079 0.462470 0.084920 0.075400 18.866695 -8.945702 5.203090 -34.038581 -1.466541 -36.468695 101.282905 -52.555317 22.477867 -2.835906 -11.525285 0.816790 0.093150 0.563980 0.411610 -4.905843 -1.780287 -8.500761 38.948308 -12.789458 17.100009 -13.901056 -5.711290 12.656166 3.607285 -4.699143 -16.535343 -14.097816 -3.195082 38.438259 5.409350 -12.010850 -16.181520 1.668778 -38.350089 5.336003 -9.917769 -27.619089 -8.946926 -25.596008 -74.418856 12.817590 -3.027583 3.817963 0.737500 0.119540 0.033470 0.429820 -9.234640 38.301383 9.785951 13.897291 17.214644 -15.945882 42.502844 79.992335 25.865395 1.108784 -2.282282 -0.235420 0.459810 0.099760 -0.001050 
1.810430 18.025410 -5.908870 -19.310011 -6.155164 -3.535185 -14.797755 11.761897 2.061587 23.932257 -0.956842 -5.004282 -6.792259 6.248628 7.880540 -0.478870 5.712084 2.859764 0.342800 -0.060140 -0.015430 18.900390 -8.943728 5.217348 -34.672386 -0.740111 -35.390696 94.327183 -51.964673 25.780592 -2.721117 -11.598651 0.806694 0.046740 0.709200 0.386020 -4.989686 -1.531600 -8.490992 37.848176 -11.427176 15.443756 -13.091834 -5.552802 12.490710 2.733585 -4.423498 -15.923283 -12.836433 -3.550454 37.375026 4.923730 -12.120950 -12.502690 4.136857 -37.121353 5.203948 -8.871484 -26.982697 -7.816279 -25.211346 -78.580879 13.893323 -3.206484 3.725783 0.684030 0.217810 -0.076930 0.438780 -9.974708 37.019368 9.603205 13.473519 18.178471 -14.341918 42.288174 81.736798 26.792755 1.165256 -2.236835 -0.319490 0.517200 0.159650 0.010180 
1.636820 18.246470 -5.871930 -16.674128 -6.976532 -5.439419 -14.842431 11.824900 2.157149 24.653012 -0.855136 -5.563982 -11.194387 8.727951 14.349973 -0.361826 6.588931 2.472156 0.409770 0.005320 0.056380 18.850887 -8.841711 5.238274 -35.664828 0.036603 -32.720315 83.725286 -51.222528 31.715412 -2.720739 -11.739059 0.702756 0.073460 0.636480 0.408490 -4.860729 -1.780254 -8.611801 32.850789 -10.218876 18.042190 -11.003011 -5.508026 12.540359 2.025371 -3.688268 -15.474527 -11.306387 -3.501830 37.994475 4.948660 -11.152070 -13.700880 4.797361 -36.562396 4.253480 -4.834887 -26.001468 -7.409883 -28.070765 -79.702112 17.476177 -3.200460 3.816422 0.713250 0.181210 -0.026400 0.434330 -9.274621 36.318606 9.938783 11.755254 17.668442 -14.125250 41.892505 86.268183 27.938062 1.230630 -2.273469 -0.288410 0.471070 0.117100 -0.012830 
1.464970 18.466270 -5.863220 -13.799006 -8.495882 -7.502790 -14.990587 11.763598 2.658398 26.223149 -1.005024 -6.567810 -17.772556 12.802236 21.162398 -0.040417 8.248619 1.818463 0.403460 -0.010300 0.088240 18.711989 -8.456337 5.202182 -35.632905 1.476917 -30.677618 72.955423 -48.135748 36.740195 -2.735324 -11.969480 0.594113 0.039430 0.571560 0.406660 -4.479132 -2.387367 -8.979653 27.440664 -9.079168 22.692057 -8.839789 -4.754926 11.648686 1.833583 -3.841862 -16.116422 -11.913593 -2.986609 39.379494 5.645630 -10.575380 -16.164470 3.141887 -36.269962 4.274317 -1.054043 -23.140809 -8.336184 -20.178464 -80.998749 12.148309 -3.186417 3.728801 0.788480 0.119360 0.032710 0.396420 -7.103218 37.139938 10.458497 8.513170 16.475876 -14.256622 44.554419 87.865118 31.004319 1.290021 -2.239496 -0.282180 0.464510 0.127130 -0.041070 
1.304720 18.654450 -5.838720 -11.264477 -10.303430 -8.893695 -15.166865 11.522903 3.373265 28.126016 -1.570634 -8.347009 -25.238537 18.143264 27.690937 0.412374 10.192707 1.139624 0.407600 -0.009620 0.144790 18.573065 -8.124100 4.970947 -34.933940 2.466862 -28.673878 63.164758 -43.929719 39.969187 -2.711126 -12.049178 0.541690 0.025220 0.515490 0.369370 -4.083360 -2.782805 -9.355903 22.246821 -7.698077 25.826500 -6.728701 -3.942605 10.310334 1.685052 -3.687501 -16.156462 -11.873169 -2.152705 41.556009 6.414300 -9.369660 -19.105830 1.875218 -35.259579 4.602737 0.551277 -21.175589 -8.248773 -19.069327 -82.730438 12.183589 -3.163816 3.593874 0.885790 0.052500 0.095490 0.370240 -5.377239 37.059241 10.097464 7.400501 17.281147 -14.046664 39.092422 88.104696 27.299945 1.372168 -2.044696 -0.311830 0.508190 0.116940 -0.080370 
1.158150 18.793810 -5.815930 -9.318998 -12.462220 -9.854103 -15.333761 11.103145 4.194680 30.737827 -2.244682 -10.825675 -33.831402 24.617939 32.979874 0.934386 12.046764 0.558835 0.461060 0.048040 0.211180 18.468461 -7.980084 4.510846 -33.468769 2.943174 -26.123136 54.101170 -38.531148 41.004476 -2.558190 -11.851916 0.527426 0.068380 0.477280 0.365830 -3.774887 -2.739486 -9.593687 18.285549 -5.925125 27.174843 -4.706497 -2.675897 10.885645 1.368577 -3.049620 -15.334903 -10.142836 -2.877117 40.738881 6.067550 -8.810270 -19.997880 2.380589 -34.486931 4.124240 1.501866 -20.988167 -8.898000 -7.519731 -83.298340 2.961736 -3.172985 3.452590 0.892370 0.037710 0.113350 0.362790 -5.132520 36.631955 9.674990 6.884324 15.474087 -16.482478 9.868485 89.782384 2.147240 1.305993 -1.766195 -0.308920 0.503190 0.086100 -0.102720 
0.993910 18.882180 -5.776070 -6.616409 -13.007159 -10.213853 -15.543614 10.802981 4.964383 32.712369 -3.014828 -14.428891 -42.387353 31.402659 36.880272 1.360311 13.411562 0.178951 0.445130 0.025370 0.215760 18.316835 -7.939616 3.959127 -32.601862 2.297280 -23.490274 46.241461 -33.038761 39.812064 -2.251681 -11.268381 0.619945 0.076790 0.496230 0.384490 -3.290411 -2.783751 -9.779817 12.281669 -3.425257 26.995325 -1.345744 -1.159754 11.108229 0.737337 -1.652575 -14.616196 -6.850816 -4.043006 39.113513 5.345620 -8.193130 -19.031880 3.182412 -33.693490 3.770959 0.993100 -21.241721 -9.065374 -0.574793 -85.205159 -3.187100 -3.231243 3.374162 0.863510 0.082320 0.078960 0.333830 -4.454747 35.931696 9.067568 8.474506 13.103561 -19.461527 141.999528 88.413407 138.486846 1.175646 -0.502162 -0.319050 0.484130 0.116800 -0.123670 
